<svg width="70" height="69" viewBox="0 0 70 69" fill="none" xmlns="http://www.w3.org/2000/svg">
<g id="solar:bag-heart-broken">
<g id="Group">
<path id="Vector" d="M35 35.0486L33.5079 36.6068C33.9093 36.9916 34.4439 37.2065 35 37.2065C35.5561 37.2065 36.0907 36.9916 36.4921 36.6068L35 35.0486ZM33.5223 43.8748C32.3234 42.9922 30.998 41.8911 29.9946 40.7324C28.9366 39.5077 28.5312 38.5561 28.5312 37.9408H24.2188C24.2188 40.1546 25.4866 42.1096 26.7344 43.5528C28.0367 45.0622 29.6496 46.3818 30.9721 47.3507L33.5223 43.8748ZM28.5312 37.9408C28.5312 36.2848 29.2874 35.5632 29.9457 35.3332C30.6645 35.0802 31.9985 35.1607 33.5108 36.6068L36.4921 33.4932C34.1203 31.2219 31.1418 30.3422 28.5198 31.2622C25.8345 32.2023 24.2188 34.7869 24.2188 37.9408H28.5312ZM39.025 47.3507C40.3475 46.3818 41.9632 45.0622 43.2656 43.5557C44.5134 42.1124 45.7812 40.1546 45.7812 37.9408H41.4688C41.4688 38.5561 41.0634 39.5077 40.0025 40.7324C39.002 41.8911 37.6766 42.9922 36.4777 43.8748L39.0279 47.3536L39.025 47.3507ZM45.7812 37.9408C45.7812 34.7869 44.1626 32.2023 41.4802 31.2622C38.8582 30.3422 35.8797 31.2219 33.5079 33.4932L36.4921 36.6068C38.0015 35.1607 39.3355 35.0802 40.0571 35.3332C40.7126 35.5632 41.4688 36.2819 41.4688 37.9408H45.7812ZM30.975 47.3507C32.033 48.1269 33.2232 49.0987 35 49.0987V44.7862C34.931 44.7862 34.885 44.7862 34.7297 44.6999C34.3102 44.4508 33.9068 44.1752 33.5223 43.8748L30.9721 47.3536L30.975 47.3507ZM36.4777 43.8748C36.0933 44.1772 35.69 44.4518 35.2702 44.7028C35.115 44.7862 35.069 44.7862 35 44.7862V49.0987C36.7767 49.0987 37.967 48.1298 39.025 47.3507L36.4777 43.8748Z" fill="#0A74F1"/>
<path id="Vector_2" d="M26.3685 17.25V14.375C26.3685 12.0875 27.2772 9.89371 28.8947 8.2762C30.5122 6.6587 32.706 5.75 34.9935 5.75C37.281 5.75 39.4748 6.6587 41.0923 8.2762C42.7098 9.89371 43.6185 12.0875 43.6185 14.375V17.25M58.6375 36.0123C56.9528 27.0394 56.1133 22.5515 52.9163 19.9008C49.7279 17.25 45.1624 17.25 36.0285 17.25H33.9585C24.8275 17.25 20.262 17.25 17.0679 19.9008C13.8766 22.5515 13.0343 27.0394 11.3495 36.0123C8.98338 48.6306 7.80176 54.9384 11.2518 59.0956C14.7018 63.25 21.1188 63.25 33.9556 63.25H36.0314C48.8683 63.25 55.2881 63.25 58.7353 59.0956C60.7363 56.6806 61.179 53.5469 60.7363 48.875" stroke="#0A74F1" stroke-width="4" stroke-linecap="round"/>
</g>
</g>
</svg>
