<svg width="70" height="69" viewBox="0 0 70 69" fill="none" xmlns="http://www.w3.org/2000/svg">
<g id="solar:balloon-broken">
<g id="Group">
<path id="Vector" d="M23.4923 47.7458C26.7985 50.2183 30.7315 51.7133 34.9923 51.7507C46.9005 51.8485 56.825 40.4807 56.7273 28.1872C56.6324 15.8995 46.9005 5.84847 34.9923 5.75072C23.084 5.65297 13.5074 15.5372 13.6023 27.8307C13.6388 31.1091 14.3064 34.3498 15.5688 37.3757" stroke="#0A74F1" stroke-width="4" stroke-linecap="round"/>
<path id="Vector_2" d="M45.0623 25.875C45.0361 23.5956 44.119 21.417 42.5072 19.8051C40.8953 18.1932 38.7166 17.2761 36.4373 17.25M34.9998 58.5063C35.9226 58.5063 36.3855 58.5062 36.7046 58.443C38.5849 58.075 39.7263 56.2235 39.1714 54.4467C39.0765 54.1449 38.858 53.751 38.421 52.9661M34.9998 58.5063C34.0769 58.5063 33.614 58.5062 33.2949 58.443C31.4146 58.075 30.2733 56.2235 30.8281 54.4467C30.923 54.1449 31.1415 53.751 31.5785 52.9661M34.9998 58.5063V64.6875" stroke="#0A74F1" stroke-width="4" stroke-linecap="round"/>
</g>
</g>
</svg>
