<svg width="70" height="69" viewBox="0 0 70 69" fill="none" xmlns="http://www.w3.org/2000/svg">
<g id="solar:adhesive-plaster-broken">
<g id="Group">
<path id="Vector" d="M39.3132 21.9714L26.5798 9.23804C24.3464 7.00469 21.3174 5.75 18.1589 5.75C15.0005 5.75 11.9714 7.00469 9.73804 9.23804C7.50469 11.4714 6.25 14.5005 6.25 17.6589C6.25 20.8174 7.50469 23.8464 9.73804 26.0798L43.4244 59.7633C45.6578 61.9967 48.6869 63.2513 51.8453 63.2513C53.4092 63.2513 54.9578 62.9433 56.4026 62.3448C57.8475 61.7464 59.1603 60.8691 60.2662 59.7633C61.372 58.6575 62.2492 57.3446 62.8477 55.8998C63.4462 54.4549 63.7542 52.9063 63.7542 51.3424C63.7542 49.7785 63.4462 48.2299 62.8477 46.7851C62.2492 45.3402 61.372 44.0274 60.2662 42.9216L47.7369 30.3923" stroke="#0A74F1" stroke-width="4" stroke-linecap="round"/>
<path id="Vector_2" d="M34.9957 51.3424L26.5748 59.7633C25.2973 61.0413 23.7458 62.0118 22.0377 62.6013C20.3296 63.1908 18.5097 63.3838 16.7159 63.1658C14.9222 62.9478 13.2015 62.3244 11.6844 61.3429C10.1672 60.3614 8.89332 59.0474 7.95919 57.5007M18.1539 34.5007L9.73306 42.9215C8.80731 43.8473 8.06556 44.8909 7.50781 46.0007M34.9957 17.6589L43.4166 9.23804C44.5224 8.1322 45.8352 7.25499 47.2801 6.65651C48.7249 6.05803 50.2735 5.75 51.8374 5.75C53.4013 5.75 54.9499 6.05803 56.3948 6.65651C57.8396 7.25499 59.1525 8.1322 60.2583 9.23804C61.3642 10.3439 62.2414 11.6567 62.8398 13.1016C63.4383 14.5464 63.7463 16.095 63.7463 17.6589C63.7463 19.2228 63.4383 20.7714 62.8398 22.2163C62.2414 23.6611 61.3642 24.9739 60.2583 26.0798L51.8346 34.5007" stroke="#0A74F1" stroke-width="4" stroke-linecap="round"/>
<path id="Vector_3" d="M46.0465 37.0064C46.2662 37.2145 46.4419 37.4646 46.5633 37.7418C46.6847 38.019 46.7493 38.3177 46.7534 38.6203C46.7575 38.9229 46.7009 39.2232 46.5869 39.5036C46.473 39.7839 46.304 40.0386 46.0901 40.2526C45.8761 40.4666 45.6214 40.6355 45.341 40.7495C45.0607 40.8634 44.7603 40.92 44.4577 40.916C44.1552 40.9119 43.8564 40.8473 43.5792 40.7259C43.302 40.6045 43.052 40.4288 42.8438 40.2091C42.4377 39.7806 42.2149 39.2106 42.2228 38.6203C42.2307 38.03 42.4687 37.4661 42.8862 37.0487C43.3036 36.6313 43.8675 36.3933 44.4577 36.3854C45.048 36.3775 45.6181 36.6003 46.0465 37.0064ZM35.3745 26.3344C35.1643 26.1241 34.9146 25.9572 34.6398 25.8434C34.3651 25.7296 34.0706 25.671 33.7732 25.671C33.4758 25.671 33.1813 25.7296 32.9065 25.8434C32.6318 25.9572 32.3821 26.1241 32.1718 26.3344C31.9615 26.5447 31.7947 26.7943 31.6809 27.0691C31.5671 27.3438 31.5085 27.6383 31.5085 27.9357C31.5085 28.2331 31.5671 28.5276 31.6809 28.8024C31.7947 29.0772 31.9615 29.3268 32.1718 29.5371C32.5965 29.9618 33.1725 30.2004 33.7732 30.2004C34.3738 30.2004 34.9498 29.9618 35.3745 29.5371C35.7993 29.1124 36.0379 28.5364 36.0379 27.9357C36.0379 27.3351 35.7993 26.7591 35.3745 26.3344ZM48.7174 45.0132C48.9277 45.2235 49.0945 45.4732 49.2083 45.748C49.3222 46.0227 49.3807 46.3172 49.3807 46.6146C49.3807 46.912 49.3222 47.2065 49.2083 47.4813C49.0945 47.756 48.9277 48.0057 48.7174 48.216C48.5071 48.4263 48.2575 48.5931 47.9827 48.7069C47.7079 48.8207 47.4135 48.8793 47.116 48.8793C46.8186 48.8793 46.5242 48.8207 46.2494 48.7069C45.9746 48.5931 45.725 48.4263 45.5147 48.216C45.09 47.7913 44.8514 47.2152 44.8514 46.6146C44.8514 46.014 45.09 45.4379 45.5147 45.0132C45.9394 44.5885 46.5154 44.3499 47.116 44.3499C47.7167 44.3499 48.2927 44.5885 48.7174 45.0132ZM27.3705 23.6635C27.1599 23.453 26.9098 23.2861 26.6346 23.1722C26.3594 23.0584 26.0645 22.9999 25.7667 23C25.4689 23.0001 25.1741 23.0589 24.899 23.173C24.6239 23.2871 24.374 23.4543 24.1635 23.6649C23.953 23.8756 23.7861 24.1257 23.6722 24.4008C23.5584 24.676 23.4999 24.971 23.5 25.2688C23.5001 25.5666 23.5589 25.8614 23.673 26.1365C23.7871 26.4116 23.9542 26.6615 24.1649 26.872C24.5904 27.2971 25.1673 27.5357 25.7688 27.5355C26.3702 27.5352 26.9469 27.296 27.372 26.8705C27.7971 26.4451 28.0357 25.8682 28.0355 25.2667C28.0352 24.6653 27.796 24.0886 27.3705 23.6635ZM38.0425 34.3384C38.4673 34.7627 38.706 35.3384 38.7063 35.9387C38.7066 36.5391 38.4683 37.115 38.044 37.5397C37.6197 37.9644 37.044 38.2031 36.4436 38.2034C35.8433 38.2037 35.2674 37.9654 34.8427 37.5411C34.418 37.1168 34.1792 36.5411 34.1789 35.9408C34.1787 35.3404 34.4169 34.7645 34.8412 34.3398C35.2656 33.9151 35.8412 33.6763 36.4416 33.6761C37.042 33.6758 37.6178 33.914 38.0425 34.3384ZM40.7105 42.3452C40.9347 42.5523 41.1148 42.8025 41.2399 43.0808C41.365 43.3592 41.4326 43.66 41.4386 43.9651C41.4446 44.2702 41.3889 44.5734 41.2748 44.8564C41.1607 45.1395 40.9906 45.3966 40.7747 45.6122C40.5589 45.8279 40.3016 45.9978 40.0185 46.1116C39.7353 46.2254 39.4321 46.2809 39.127 46.2746C38.8219 46.2683 38.5212 46.2005 38.2429 46.0751C37.9647 45.9498 37.7146 45.7695 37.5078 45.5451C37.1112 45.1149 36.8965 44.548 36.9085 43.963C36.9205 43.3781 37.1584 42.8204 37.5723 42.4069C37.9862 41.9934 38.544 41.756 39.129 41.7445C39.714 41.733 40.2807 41.9483 40.7105 42.3452ZM30.0385 31.6704C29.8283 31.4601 29.5786 31.2932 29.3038 31.1794C29.0291 31.0656 28.7346 31.007 28.4372 31.007C28.1398 31.007 27.8453 31.0656 27.5705 31.1794C27.2958 31.2932 27.0461 31.4601 26.8358 31.6704C26.6255 31.8807 26.4587 32.1303 26.3449 32.4051C26.2311 32.6798 26.1725 32.9743 26.1725 33.2717C26.1725 33.5691 26.2311 33.8636 26.3449 34.1384C26.4587 34.4132 26.6255 34.6628 26.8358 34.8731C27.2605 35.2978 27.8365 35.5364 28.4372 35.5364C29.0378 35.5364 29.6138 35.2978 30.0385 34.8731C30.4633 34.4484 30.7019 33.8724 30.7019 33.2717C30.7019 32.6711 30.4633 32.0951 30.0385 31.6704Z" fill="#0A74F1"/>
</g>
</g>
</svg>
